<?xml version="1.0" encoding="UTF-8"?>
<svg id="Capa_1" data-name="Capa 1" xmlns="http://www.w3.org/2000/svg" viewBox="0 0 512 512">
  <defs>
    <style>
      .cls-1 {
        fill: #faaa23;
      }

      .cls-1, .cls-2 {
        stroke-width: 0px;
      }

      .cls-2 {
        fill: #fff;
      }
    </style>
  </defs>
  <circle class="cls-1" cx="256" cy="256" r="256"/>
  <rect class="cls-1" width="512" height="512" rx="50" ry="50"/>
  <g>
    <path class="cls-2" d="M216.19,307.19c-15.06,26.37-43.26,42.75-73.59,42.75-46.7,0-84.7-37.99-84.7-84.7s37.99-84.69,84.7-84.69c29.74,0,56.77,15.16,72.3,40.56l3,4.92,13.79-8.44-3-4.91c-18.49-30.24-50.68-48.3-86.1-48.3-55.61,0-100.86,45.25-100.86,100.86s45.25,100.86,100.86,100.86c36.12,0,69.7-19.5,87.63-50.9l2.86-5-14.04-8.02-2.86,5Z"/>
    <path class="cls-2" d="M472.51,349.94c-15.95,0-21.33-5.6-21.33-22.2v-64.05l-.04-4.21h-.15c-1.41-25-11.94-48.33-29.93-66.06-19-18.73-44.12-29.04-70.74-29.04-11.04,0-21.82,1.78-32.16,5.28l9.17,14.09c7.45-2.11,15.14-3.21,22.99-3.21,46.7,0,84.7,37.99,84.7,84.69s-37.99,84.7-84.7,84.7-84.69-37.99-84.69-84.7c0-20.43,7.47-40.08,20.76-55.41l-9.12-14.02c-17.04,17.91-26.93,41.44-27.73,66.2-20.2,11.49-28.55,8.68-41.01,4.46-6.7-2.26-14.78-4.98-25.9-5.83-1.31-19.74-17.78-35.41-37.85-35.41-9.37,0-17.12,6.94-18.45,15.94h-19.66c-2.68,0-4.86,2.17-4.86,4.86s2.17,4.86,4.86,4.86h19.44v28.68h-19.44c-2.68,0-4.86,2.17-4.86,4.85s2.17,4.86,4.86,4.86h19.66c1.33,9,9.09,15.94,18.45,15.94,19.88,0,36.22-15.37,37.8-34.85,9.55.81,16.53,3.17,22.84,5.3,6.42,2.17,12.43,4.2,19.62,4.2,6.76,0,14.57-1.81,24.74-6.98,3.93,52.04,47.51,93.2,100.54,93.2,34.62,0,66.3-17.65,84.7-46.12v7.76c0,25.46,12.61,38.36,37.49,38.36h5.76v-16.17h-5.76Z"/>
    <polygon class="cls-2" points="258.72 137.24 347.37 274.47 360.94 265.69 272.4 128.63 310 104.98 301.22 91.41 212.35 147.31 221.13 160.89 258.72 137.24"/>
  </g>
</svg>